<?xml version="1.0" standalone="no"?>
<!DOCTYPE svg PUBLIC "-//W3C//DTD SVG 20010904//EN"
 "http://www.w3.org/TR/2001/REC-SVG-20010904/DTD/svg10.dtd">
<svg version="1.0" xmlns="http://www.w3.org/2000/svg"
 width="184.000000pt" height="30.000000pt" viewBox="0 0 184.000000 30.000000"
 preserveAspectRatio="xMidYMid meet">
<metadata>
Created by potrace 1.10, written by Peter Selinger 2001-2011
</metadata>
<g transform="translate(0.000000,30.000000) scale(0.100000,-0.100000)"
fill="#000000" stroke="none">
<path d="M736 292 c-2 -4 2 -16 10 -27 8 -10 14 -14 14 -8 0 7 -5 15 -10 18
-6 4 -8 11 -5 16 4 5 4 9 1 9 -3 0 -7 -3 -10 -8z"/>
<path d="M876 285 c-11 -8 -15 -15 -9 -15 6 0 16 7 23 15 16 19 11 19 -14 0z"/>
<path d="M1047 286 c-3 -8 0 -13 6 -12 15 2 22 19 9 24 -5 1 -12 -4 -15 -12z"/>
<path d="M1155 289 c-4 -6 -5 -12 -2 -15 2 -3 7 2 10 11 7 17 1 20 -8 4z"/>
<path d="M1240 296 c0 -2 8 -10 18 -17 15 -13 16 -12 3 4 -13 16 -21 21 -21
13z"/>
<path d="M1445 290 c-3 -5 -3 -10 2 -10 4 0 1 -5 -7 -11 -12 -8 -12 -10 -1 -7
8 2 15 12 17 21 3 19 -2 22 -11 7z"/>
<path d="M1587 289 c7 -7 15 -10 18 -7 3 3 -2 9 -12 12 -14 6 -15 5 -6 -5z"/>
<path d="M1696 292 c-3 -4 4 -9 15 -9 23 -2 25 3 4 10 -8 4 -16 3 -19 -1z"/>
<path d="M360 280 c0 -5 5 -10 11 -10 5 0 7 5 4 10 -3 6 -8 10 -11 10 -2 0 -4
-4 -4 -10z"/>
<path d="M1746 276 c6 -15 4 -17 -6 -11 -9 6 -11 4 -5 -4 5 -9 10 -10 18 -2 8
8 7 14 -2 24 -10 10 -11 8 -5 -7z"/>
<path d="M252 264 c-7 -8 -8 -14 -3 -14 10 0 25 19 20 25 -2 1 -10 -3 -17 -11z"/>
<path d="M570 269 c0 -5 5 -7 10 -4 6 3 10 8 10 11 0 2 -4 4 -10 4 -5 0 -10
-5 -10 -11z"/>
<path d="M1565 270 c-3 -5 -1 -10 4 -10 6 0 11 5 11 10 0 6 -2 10 -4 10 -3 0
-8 -4 -11 -10z"/>
<path d="M26 243 c-6 -14 -5 -15 5 -6 7 7 10 15 7 18 -3 3 -9 -2 -12 -12z"/>
<path d="M1613 245 c0 -8 4 -12 9 -9 5 3 6 10 3 15 -9 13 -12 11 -12 -6z"/>
<path d="M395 241 c-3 -5 0 -13 6 -17 7 -4 9 -3 5 4 -3 5 0 13 6 15 9 4 10 6
1 6 -6 1 -14 -3 -18 -8z"/>
<path d="M1093 242 c-58 -9 -84 -112 -42 -166 16 -21 29 -26 63 -26 43 0 66
15 79 53 9 25 -35 23 -51 -3 -15 -25 -34 -25 -55 -2 -22 25 -21 75 1 95 23 21
51 22 58 2 4 -8 17 -15 30 -15 22 0 24 2 13 23 -6 12 -13 23 -14 25 -6 7 -63
17 -82 14z"/>
<path d="M1264 238 c-28 -13 -44 -49 -44 -99 0 -105 150 -126 176 -24 22 90
-54 161 -132 123z m85 -59 c19 -34 7 -77 -24 -91 -48 -22 -84 47 -54 103 15
28 59 21 78 -12z"/>
<path d="M1291 157 c-13 -21 -12 -21 5 -5 10 10 16 20 13 22 -3 3 -11 -5 -18
-17z"/>
<path d="M1474 240 c-54 -21 -73 -113 -33 -164 15 -20 29 -26 58 -26 20 0 43
6 49 12 10 10 15 10 22 -2 15 -22 25 0 24 52 0 40 -2 43 -27 40 -14 -2 -34 1
-45 7 -17 9 -18 7 -14 -14 3 -19 11 -25 30 -25 24 0 25 0 7 -20 -23 -25 -47
-26 -68 -2 -40 44 -5 121 48 108 14 -4 25 -11 25 -16 0 -6 9 -10 20 -10 46 0
3 60 -47 65 -15 2 -38 -1 -49 -5z"/>
<path d="M1645 225 c-14 -13 -25 -29 -25 -35 0 -26 22 -49 52 -55 54 -12 71
-24 57 -41 -15 -18 -44 -18 -63 1 -19 19 -46 19 -46 1 0 -23 41 -46 80 -46 52
0 72 18 68 60 -3 32 -7 36 -53 52 -55 18 -66 41 -22 46 18 2 29 -2 33 -12 7
-19 44 -22 44 -3 0 18 -12 32 -37 46 -34 17 -62 13 -88 -14z"/>
<path d="M68 145 l-3 -95 25 0 c24 0 25 3 22 45 l-4 45 36 0 36 0 0 -45 c0
-38 3 -45 20 -45 19 0 20 7 20 95 0 88 -1 95 -20 95 -16 0 -20 -7 -20 -35 0
-33 -2 -35 -35 -35 -33 0 -35 2 -35 35 0 28 -4 35 -19 35 -18 0 -20 -9 -23
-95z"/>
<path d="M303 228 c0 -7 -14 -50 -31 -95 l-31 -83 24 0 c14 0 25 7 28 20 7 29
72 29 80 0 4 -17 47 -31 47 -15 0 4 -14 46 -31 95 -29 83 -33 90 -59 90 -14 0
-27 -6 -27 -12z m43 -73 c7 -30 1 -40 -19 -32 -10 3 -13 15 -10 31 7 33 21 33
29 1z"/>
<path d="M448 145 c3 -87 5 -95 23 -95 11 0 19 6 18 12 -6 47 1 58 35 58 42 0
66 22 66 60 0 44 -23 60 -88 60 l-57 0 3 -95z m86 59 c21 -8 21 -40 0 -48 -29
-11 -42 -6 -46 19 -7 35 8 44 46 29z"/>
<path d="M620 145 c0 -88 1 -95 20 -95 16 0 20 7 20 35 0 32 2 35 31 35 50 0
69 16 69 58 0 51 -14 62 -82 62 l-58 0 0 -95z m100 50 c17 -20 -3 -45 -36 -45
-20 0 -24 5 -24 30 0 25 4 30 24 30 13 0 29 -7 36 -15z"/>
<path d="M782 223 c29 -33 58 -102 58 -138 0 -28 4 -35 20 -35 16 0 20 7 20
38 0 25 12 56 35 95 l34 57 -27 0 c-23 0 -30 -6 -41 -35 -7 -19 -16 -35 -20
-35 -4 0 -13 16 -20 35 -10 30 -17 35 -43 35 -29 0 -30 -1 -16 -17z"/>
<path d="M935 149 c-10 -15 3 -25 16 -12 7 7 7 13 1 17 -6 3 -14 1 -17 -5z"/>
<path d="M580 61 c0 -6 4 -13 10 -16 6 -3 7 1 4 9 -7 18 -14 21 -14 7z"/>
<path d="M557 9 c7 -7 15 -10 18 -7 3 3 -2 9 -12 12 -14 6 -15 5 -6 -5z"/>
</g>
</svg>
